<?xml version="1.0" encoding="UTF-8" standalone="no"?>
<svg width="265px" height="60px" viewBox="0 0 265 60" version="1.1" xmlns="http://www.w3.org/2000/svg" xmlns:xlink="http://www.w3.org/1999/xlink" xmlns:sketch="http://www.bohemiancoding.com/sketch/ns">
    <!-- Generator: Sketch 3.3.3 (12072) - http://www.bohemiancoding.com/sketch -->
    <title>watch-video.svg</title>
    <desc>Created with Sketch.</desc>
    <defs></defs>
    <g id="FiftyThree.com-Home" stroke="none" stroke-width="1" fill="none" fill-rule="evenodd" sketch:type="MSPage">
        <g sketch:type="MSArtboardGroup" transform="translate(-395.000000, -537.000000)" id="watch-video.svg">
            <g sketch:type="MSLayerGroup" transform="translate(395.000000, 537.000000)">
                <g id="idea-copy-10-+-DOWNLOAD-+-idea-copy-10-+-DOWNLOAD-+-Shape-+-Triangle-1" sketch:type="MSShapeGroup">
                    <g id="idea-copy-10-+-DOWNLOAD" fill="#403D39">
                        <g id="idea-copy-10-+-DOWNLOAD-PAPER">
                            <rect id="idea-copy-10" x="0" y="0" width="265" height="60" rx="30"></rect>
                        </g>
                    </g>
                    <path d="M23.5,40.4832317 L23.5,20.5167683 L37,30.5 L23.5,40.4832317 Z" id="Triangle-1" fill="#FFFFFF"></path>
                </g>
                <path d="M74.2125,37 L76.7745,37 L80.2605,25.849 L80.3025,25.849 L83.7885,37 L86.3505,37 L90.6975,22.132 L87.8835,22.132 L84.9435,33.052 L84.9015,33.052 L81.6885,22.132 L78.9585,22.132 L75.6825,33.052 L75.6405,33.052 L72.7635,22.132 L69.8655,22.132 L74.2125,37 Z M90.9035,37 L93.8645,37 L95.2085,33.598 L101.6555,33.598 L103.0415,37 L106.0655,37 L99.6605,22.132 L97.3715,22.132 L90.9035,37 Z M96.1115,31.33 L98.4425,25.282 L100.7315,31.33 L96.1115,31.33 Z M109.7785,37 L112.4245,37 L112.4245,24.442 L116.9815,24.442 L116.9815,22.132 L105.2215,22.132 L105.2215,24.442 L109.7785,24.442 L109.7785,37 Z M131.3205,24.022 C130.1445,22.468 127.8555,21.754 125.9235,21.754 C121.3455,21.754 117.8595,24.757 117.8595,29.524 C117.8595,34.165 121.1565,37.378 125.7975,37.378 C128.3175,37.378 130.2495,36.412 131.5515,34.774 L129.4305,33.283 C128.6745,34.312 127.4145,35.005 125.8185,35.005 C122.7525,35.005 120.7785,32.758 120.7785,29.524 C120.7785,26.458 122.8575,24.085 125.9235,24.085 C127.1205,24.085 128.5275,24.547 129.3045,25.618 L131.3205,24.022 Z M133.6895,37 L136.3355,37 L136.3355,30.406 L143.2865,30.406 L143.2865,37 L145.9325,37 L145.9325,22.132 L143.2865,22.132 L143.2865,28.138 L136.3355,28.138 L136.3355,22.132 L133.6895,22.132 L133.6895,37 Z M159.1125,37 L161.4015,37 L167.3655,22.132 L164.5095,22.132 L160.3725,33.577 L160.2885,33.577 L156.1935,22.132 L153.2325,22.132 L159.1125,37 Z M169.2935,37 L171.9395,37 L171.9395,22.132 L169.2935,22.132 L169.2935,37 Z M175.7155,37 L180.9865,37 C184.8715,37 189.1975,34.774 189.1975,29.566 C189.1975,23.98 184.8715,22.132 180.9865,22.132 L175.7155,22.132 L175.7155,37 Z M178.3615,34.69 L178.3615,24.4 L180.5665,24.4 C183.2965,24.4 186.3625,25.303 186.3625,29.566 C186.3625,33.577 183.2965,34.69 180.5665,34.69 L178.3615,34.69 Z M192.2595,37 L202.4865,37 L202.4865,34.648 L194.9055,34.648 L194.9055,30.448 L201.7305,30.448 L201.7305,28.222 L194.9055,28.222 L194.9055,24.442 L202.1085,24.442 L202.1085,22.132 L192.2595,22.132 L192.2595,37 Z M204.8555,29.524 C204.8555,34.165 208.2365,37.378 212.8145,37.378 C217.4555,37.378 220.8365,34.165 220.8365,29.524 C220.8365,24.757 217.4555,21.754 212.8145,21.754 C208.2365,21.754 204.8555,24.757 204.8555,29.524 L204.8555,29.524 Z M207.7325,29.524 C207.7325,26.458 209.7695,24.085 212.8355,24.085 C215.9225,24.085 217.9595,26.458 217.9595,29.524 C217.9595,32.695 215.8805,35.005 212.8355,35.005 C209.8115,35.005 207.7325,32.695 207.7325,29.524 L207.7325,29.524 Z" id="WATCH-VIDEO" fill="#FFFFFF" sketch:type="MSShapeGroup"></path>
            </g>
        </g>
    </g>
</svg>